<?xml version="1.0" encoding="UTF-8" standalone="no"?>
<!DOCTYPE svg PUBLIC "-//W3C//DTD SVG 1.1//EN"
 "http://www.w3.org/Graphics/SVG/1.1/DTD/svg11.dtd">
<!-- Generated by graphviz version 2.38.0 (20140413.2041)
 -->
<!-- Title: flow Pages: 1 -->
<svg width="1490pt" height="173pt"
 viewBox="0.00 0.00 1490.33 173.00" xmlns="http://www.w3.org/2000/svg" xmlns:xlink="http://www.w3.org/1999/xlink">
<g id="graph0" class="graph" transform="scale(1 1) rotate(0) translate(4 169)">
<title>flow</title>
<polygon fill="white" stroke="none" points="-4,4 -4,-169 1486.33,-169 1486.33,4 -4,4"/>
<g id="clust1" class="cluster"><title>cluster_0</title>
<g id="a_clust1"><a xlink:title="f">
<path fill="#fcfcfc" stroke="black" d="M20,-8C20,-8 1462.33,-8 1462.33,-8 1468.33,-8 1474.33,-14 1474.33,-20 1474.33,-20 1474.33,-145 1474.33,-145 1474.33,-151 1468.33,-157 1462.33,-157 1462.33,-157 20,-157 20,-157 14,-157 8,-151 8,-145 8,-145 8,-20 8,-20 8,-14 14,-8 20,-8"/>
<text text-anchor="middle" x="741.164" y="-141.8" font-family="arial" font-size="14.00">f</text>
</a>
</g>
</g>
<!-- f/Sum -->
<g id="node1" class="node"><title>f/Sum</title>
<g id="a_node1"><a xlink:title="name: f/Sum&#10;type: Sum&#10;input:&#10; &#160;f/Exp:0: float32[1x64]&#10;output:&#10; &#160;f/Sum:0: float32&#10;func: f&#10;">
<path fill="#efd8a9" stroke="#a79776" d="M1022.32,-66C1022.32,-66 986.321,-66 986.321,-66 980.321,-66 974.321,-60 974.321,-54 974.321,-54 974.321,-40 974.321,-40 974.321,-34 980.321,-28 986.321,-28 986.321,-28 1022.32,-28 1022.32,-28 1028.32,-28 1034.32,-34 1034.32,-40 1034.32,-40 1034.32,-54 1034.32,-54 1034.32,-60 1028.32,-66 1022.32,-66"/>
<text text-anchor="middle" x="1004.32" y="-50.8" font-family="arial" font-size="14.00">Sum</text>
<text text-anchor="middle" x="1004.32" y="-35.8" font-family="arial" font-size="14.00">float32</text>
</a>
</g>
</g>
<!-- f/Reciprocal -->
<g id="node8" class="node"><title>f/Reciprocal</title>
<g id="a_node8"><a xlink:title="name: f/Reciprocal&#10;type: Reciprocal&#10;input:&#10; &#160;f/Sum:0: float32&#10;output:&#10; &#160;f/Reciprocal:0: float32&#10;func: f&#10;">
<path fill="#efd8a9" stroke="#a79776" d="M1143.32,-66C1143.32,-66 1082.32,-66 1082.32,-66 1076.32,-66 1070.32,-60 1070.32,-54 1070.32,-54 1070.32,-40 1070.32,-40 1070.32,-34 1076.32,-28 1082.32,-28 1082.32,-28 1143.32,-28 1143.32,-28 1149.32,-28 1155.32,-34 1155.32,-40 1155.32,-40 1155.32,-54 1155.32,-54 1155.32,-60 1149.32,-66 1143.32,-66"/>
<text text-anchor="middle" x="1112.82" y="-50.8" font-family="arial" font-size="14.00">Reciprocal</text>
<text text-anchor="middle" x="1112.82" y="-35.8" font-family="arial" font-size="14.00">float32</text>
</a>
</g>
</g>
<!-- f/Sum&#45;&gt;f/Reciprocal -->
<g id="edge10" class="edge"><title>f/Sum&#45;&gt;f/Reciprocal</title>
<g id="a_edge10"><a xlink:title="f/Sum:0">
<path fill="none" stroke="black" d="M1034.42,-47C1042.3,-47 1051.08,-47 1059.81,-47"/>
<polygon fill="black" stroke="black" points="1059.98,-50.5001 1069.98,-47 1059.98,-43.5001 1059.98,-50.5001"/>
</a>
</g>
</g>
<!-- f/Relu -->
<g id="node2" class="node"><title>f/Relu</title>
<g id="a_node2"><a xlink:title="name: f/Relu&#10;type: Relu&#10;input:&#10; &#160;f/Add:0: float32[1x64]&#10;output:&#10; &#160;f/Relu:0: float32[1x64]&#10;func: f&#10;">
<path fill="#efd8a9" stroke="#a79776" d="M560.321,-68C560.321,-68 485.321,-68 485.321,-68 479.321,-68 473.321,-62 473.321,-56 473.321,-56 473.321,-42 473.321,-42 473.321,-36 479.321,-30 485.321,-30 485.321,-30 560.321,-30 560.321,-30 566.321,-30 572.321,-36 572.321,-42 572.321,-42 572.321,-56 572.321,-56 572.321,-62 566.321,-68 560.321,-68"/>
<text text-anchor="middle" x="522.821" y="-52.8" font-family="arial" font-size="14.00">Relu</text>
<text text-anchor="middle" x="522.821" y="-37.8" font-family="arial" font-size="14.00">float32[1x64]</text>
</a>
</g>
</g>
<!-- f/Sub -->
<g id="node3" class="node"><title>f/Sub</title>
<g id="a_node3"><a xlink:title="name: f/Sub&#10;type: Sub&#10;input:&#10; &#160;f/Relu:0: float32[1x64]&#10; &#160;f/Max:0: float32&#10;output:&#10; &#160;f/Sub:0: float32[1x64]&#10;func: f&#10;">
<path fill="#efd8a9" stroke="#a79776" d="M791.321,-78C791.321,-78 716.321,-78 716.321,-78 710.321,-78 704.321,-72 704.321,-66 704.321,-66 704.321,-52 704.321,-52 704.321,-46 710.321,-40 716.321,-40 716.321,-40 791.321,-40 791.321,-40 797.321,-40 803.321,-46 803.321,-52 803.321,-52 803.321,-66 803.321,-66 803.321,-72 797.321,-78 791.321,-78"/>
<text text-anchor="middle" x="753.821" y="-62.8" font-family="arial" font-size="14.00">Sub</text>
<text text-anchor="middle" x="753.821" y="-47.8" font-family="arial" font-size="14.00">float32[1x64]</text>
</a>
</g>
</g>
<!-- f/Relu&#45;&gt;f/Sub -->
<g id="edge1" class="edge"><title>f/Relu&#45;&gt;f/Sub</title>
<g id="a_edge1"><a xlink:title="%0 = f/Relu:0">
<path fill="none" stroke="black" d="M572.418,-41.8002C600.501,-38.6818 636.469,-36.4632 668.321,-40 676.699,-40.9303 685.46,-42.3644 694.035,-44.0369"/>
<polygon fill="black" stroke="black" points="693.479,-47.496 703.981,-46.094 694.897,-40.6411 693.479,-47.496"/>
</a>
</g>
</g>
<!-- f/Max -->
<g id="node5" class="node"><title>f/Max</title>
<g id="a_node5"><a xlink:title="name: f/Max&#10;type: Max&#10;input:&#10; &#160;f/Relu:0: float32[1x64]&#10;output:&#10; &#160;f/Max:0: float32&#10;func: f&#10;">
<path fill="#efd8a9" stroke="#a79776" d="M656.321,-87C656.321,-87 620.321,-87 620.321,-87 614.321,-87 608.321,-81 608.321,-75 608.321,-75 608.321,-61 608.321,-61 608.321,-55 614.321,-49 620.321,-49 620.321,-49 656.321,-49 656.321,-49 662.321,-49 668.321,-55 668.321,-61 668.321,-61 668.321,-75 668.321,-75 668.321,-81 662.321,-87 656.321,-87"/>
<text text-anchor="middle" x="638.321" y="-71.8" font-family="arial" font-size="14.00">Max</text>
<text text-anchor="middle" x="638.321" y="-56.8" font-family="arial" font-size="14.00">float32</text>
</a>
</g>
</g>
<!-- f/Relu&#45;&gt;f/Max -->
<g id="edge2" class="edge"><title>f/Relu&#45;&gt;f/Max</title>
<g id="a_edge2"><a xlink:title="f/Relu:0">
<path fill="none" stroke="black" d="M572.614,-57.168C581.147,-58.5965 589.926,-60.066 598.157,-61.4439"/>
<polygon fill="black" stroke="black" points="597.789,-64.931 608.23,-63.1302 598.945,-58.0271 597.789,-64.931"/>
</a>
</g>
</g>
<!-- f/Exp -->
<g id="node9" class="node"><title>f/Exp</title>
<g id="a_node9"><a xlink:title="name: f/Exp&#10;type: Exp&#10;input:&#10; &#160;f/Sub:0: float32[1x64]&#10;output:&#10; &#160;f/Exp:0: float32[1x64]&#10;func: f&#10;">
<path fill="#efd8a9" stroke="#a79776" d="M926.321,-78C926.321,-78 851.321,-78 851.321,-78 845.321,-78 839.321,-72 839.321,-66 839.321,-66 839.321,-52 839.321,-52 839.321,-46 845.321,-40 851.321,-40 851.321,-40 926.321,-40 926.321,-40 932.321,-40 938.321,-46 938.321,-52 938.321,-52 938.321,-66 938.321,-66 938.321,-72 932.321,-78 926.321,-78"/>
<text text-anchor="middle" x="888.821" y="-62.8" font-family="arial" font-size="14.00">Exp</text>
<text text-anchor="middle" x="888.821" y="-47.8" font-family="arial" font-size="14.00">float32[1x64]</text>
</a>
</g>
</g>
<!-- f/Sub&#45;&gt;f/Exp -->
<g id="edge11" class="edge"><title>f/Sub&#45;&gt;f/Exp</title>
<g id="a_edge11"><a xlink:title="f/Sub:0">
<path fill="none" stroke="black" d="M803.59,-59C811.812,-59 820.425,-59 828.872,-59"/>
<polygon fill="black" stroke="black" points="829.058,-62.5001 839.058,-59 829.058,-55.5001 829.058,-62.5001"/>
</a>
</g>
</g>
<!-- f/y -->
<g id="node4" class="node"><title>f/y</title>
<g id="a_node4"><a xlink:title="name: f/y&#10;type: Mul&#10;input:&#10; &#160;f/Exp:0: float32[1x64]&#10; &#160;f/Reciprocal:0: float32&#10;output:&#10; &#160;f/y:0: float32[1x64]&#10;func: f&#10;">
<path fill="#efd8a9" stroke="#a79776" d="M1278.32,-70C1278.32,-70 1203.32,-70 1203.32,-70 1197.32,-70 1191.32,-64 1191.32,-58 1191.32,-58 1191.32,-44 1191.32,-44 1191.32,-38 1197.32,-32 1203.32,-32 1203.32,-32 1278.32,-32 1278.32,-32 1284.32,-32 1290.32,-38 1290.32,-44 1290.32,-44 1290.32,-58 1290.32,-58 1290.32,-64 1284.32,-70 1278.32,-70"/>
<text text-anchor="middle" x="1240.82" y="-54.8" font-family="arial" font-size="14.00">Mul</text>
<text text-anchor="middle" x="1240.82" y="-39.8" font-family="arial" font-size="14.00">float32[1x64]</text>
</a>
</g>
</g>
<!-- v:f/y:0 -->
<g id="node11" class="node"><title>v:f/y:0</title>
<g id="a_node11"><a xlink:title="out var f/y:0">
<ellipse fill="#bbc6dd" stroke="#828a9a" cx="1396.32" cy="-51" rx="70.0071" ry="26.7407"/>
<text text-anchor="middle" x="1396.32" y="-54.8" font-family="arial" font-size="14.00">y:0</text>
<text text-anchor="middle" x="1396.32" y="-39.8" font-family="arial" font-size="14.00">float32[1x64]</text>
</a>
</g>
</g>
<!-- f/y&#45;&gt;v:f/y:0 -->
<g id="edge4" class="edge"><title>f/y&#45;&gt;v:f/y:0</title>
<g id="a_edge4"><a xlink:title="f/y:0">
<path fill="none" stroke="black" d="M1290.39,-51C1298.6,-51 1307.3,-51 1316.05,-51"/>
<polygon fill="black" stroke="black" points="1316.32,-54.5001 1326.32,-51 1316.32,-47.5001 1316.32,-54.5001"/>
</a>
</g>
</g>
<!-- f/Max&#45;&gt;f/Sub -->
<g id="edge13" class="edge"><title>f/Max&#45;&gt;f/Sub</title>
<g id="a_edge13"><a xlink:title="%1 = f/Max:0">
<path fill="none" stroke="black" d="M668.55,-65.6823C676.472,-65.0541 685.338,-64.3511 694.263,-63.6433"/>
<polygon fill="black" stroke="black" points="694.627,-67.1256 704.319,-62.846 694.073,-60.1475 694.627,-67.1256"/>
</a>
</g>
</g>
<!-- f/MatMul -->
<g id="node6" class="node"><title>f/MatMul</title>
<g id="a_node6"><a xlink:title="name: f/MatMul&#10;type: MatMul&#10;input:&#10; &#160;f/x: float32[1x256]&#10; &#160;f/W: float32[256x64]&#10;output:&#10; &#160;f/MatMul:0: float32[1x64]&#10;func: f&#10;">
<path fill="#efd8a9" stroke="#a79776" d="M290.321,-118C290.321,-118 215.321,-118 215.321,-118 209.321,-118 203.321,-112 203.321,-106 203.321,-106 203.321,-92 203.321,-92 203.321,-86 209.321,-80 215.321,-80 215.321,-80 290.321,-80 290.321,-80 296.321,-80 302.321,-86 302.321,-92 302.321,-92 302.321,-106 302.321,-106 302.321,-112 296.321,-118 290.321,-118"/>
<text text-anchor="middle" x="252.821" y="-102.8" font-family="arial" font-size="14.00">MatMul</text>
<text text-anchor="middle" x="252.821" y="-87.8" font-family="arial" font-size="14.00">float32[1x64]</text>
</a>
</g>
</g>
<!-- f/Add -->
<g id="node7" class="node"><title>f/Add</title>
<g id="a_node7"><a xlink:title="name: f/Add&#10;type: Add&#10;input:&#10; &#160;f/MatMul:0: float32[1x64]&#10; &#160;f/b: float32[64]&#10;output:&#10; &#160;f/Add:0: float32[1x64]&#10;func: f&#10;">
<path fill="#efd8a9" stroke="#a79776" d="M425.321,-68C425.321,-68 350.321,-68 350.321,-68 344.321,-68 338.321,-62 338.321,-56 338.321,-56 338.321,-42 338.321,-42 338.321,-36 344.321,-30 350.321,-30 350.321,-30 425.321,-30 425.321,-30 431.321,-30 437.321,-36 437.321,-42 437.321,-42 437.321,-56 437.321,-56 437.321,-62 431.321,-68 425.321,-68"/>
<text text-anchor="middle" x="387.821" y="-52.8" font-family="arial" font-size="14.00">Add</text>
<text text-anchor="middle" x="387.821" y="-37.8" font-family="arial" font-size="14.00">float32[1x64]</text>
</a>
</g>
</g>
<!-- f/MatMul&#45;&gt;f/Add -->
<g id="edge5" class="edge"><title>f/MatMul&#45;&gt;f/Add</title>
<g id="a_edge5"><a xlink:title="%0 = f/MatMul:0">
<path fill="none" stroke="black" d="M302.59,-80.6658C310.993,-77.5068 319.803,-74.1946 328.429,-70.9518"/>
<polygon fill="black" stroke="black" points="329.929,-74.1272 338.058,-67.332 327.466,-67.5749 329.929,-74.1272"/>
</a>
</g>
</g>
<!-- f/Add&#45;&gt;f/Relu -->
<g id="edge14" class="edge"><title>f/Add&#45;&gt;f/Relu</title>
<g id="a_edge14"><a xlink:title="f/Add:0">
<path fill="none" stroke="black" d="M437.59,-49C445.812,-49 454.425,-49 462.872,-49"/>
<polygon fill="black" stroke="black" points="463.058,-52.5001 473.058,-49 463.058,-45.5001 463.058,-52.5001"/>
</a>
</g>
</g>
<!-- f/Reciprocal&#45;&gt;f/y -->
<g id="edge9" class="edge"><title>f/Reciprocal&#45;&gt;f/y</title>
<g id="a_edge9"><a xlink:title="%1 = f/Reciprocal:0">
<path fill="none" stroke="black" d="M1155.43,-48.3208C1163.67,-48.5825 1172.47,-48.8618 1181.16,-49.1376"/>
<polygon fill="black" stroke="black" points="1181.16,-52.6393 1191.26,-49.4585 1181.38,-45.6429 1181.16,-52.6393"/>
</a>
</g>
</g>
<!-- f/Exp&#45;&gt;f/Sum -->
<g id="edge6" class="edge"><title>f/Exp&#45;&gt;f/Sum</title>
<g id="a_edge6"><a xlink:title="f/Exp:0">
<path fill="none" stroke="black" d="M938.614,-53.8413C947.147,-52.939 955.926,-52.0109 964.157,-51.1407"/>
<polygon fill="black" stroke="black" points="964.653,-54.6078 974.23,-50.0757 963.917,-47.6466 964.653,-54.6078"/>
</a>
</g>
</g>
<!-- f/Exp&#45;&gt;f/y -->
<g id="edge7" class="edge"><title>f/Exp&#45;&gt;f/y</title>
<g id="a_edge7"><a xlink:title="%0 = f/Exp:0">
<path fill="none" stroke="black" d="M938.75,-69.8709C950.352,-72.0015 962.726,-73.9119 974.321,-75 1054.41,-82.516 1075.65,-86.0955 1155.32,-75 1163.88,-73.8079 1172.79,-71.9675 1181.48,-69.8242"/>
<polygon fill="black" stroke="black" points="1182.37,-73.2086 1191.16,-67.294 1180.6,-66.436 1182.37,-73.2086"/>
</a>
</g>
</g>
<!-- v:f/W -->
<g id="node10" class="node"><title>v:f/W</title>
<g id="a_node10"><a xlink:title="const var f/W">
<polygon fill="#eeeeee" stroke="#a6a6a6" points="149.66,-126 33.6604,-126 33.6604,-88 149.66,-88 149.66,-126"/>
<text text-anchor="middle" x="91.6604" y="-110.8" font-family="arial" font-size="14.00">W</text>
<text text-anchor="middle" x="91.6604" y="-95.8" font-family="arial" font-size="14.00">float32[256x64]</text>
</a>
</g>
</g>
<!-- v:f/W&#45;&gt;f/MatMul -->
<g id="edge3" class="edge"><title>v:f/W&#45;&gt;f/MatMul</title>
<g id="a_edge3"><a xlink:title="%1 = f/W">
<path fill="none" stroke="black" d="M149.671,-104.134C163.74,-103.427 178.834,-102.669 192.987,-101.957"/>
<polygon fill="black" stroke="black" points="193.286,-105.447 203.098,-101.449 192.935,-98.4555 193.286,-105.447"/>
</a>
</g>
</g>
<!-- v:f/x -->
<g id="node12" class="node"><title>v:f/x</title>
<g id="a_node12"><a xlink:title="var f/x">
<ellipse fill="#c4dac5" stroke="#89998a" cx="91.6604" cy="-43" rx="75.8212" ry="26.7407"/>
<text text-anchor="middle" x="91.6604" y="-46.8" font-family="arial" font-size="14.00">x</text>
<text text-anchor="middle" x="91.6604" y="-31.8" font-family="arial" font-size="14.00">float32[1x256]</text>
</a>
</g>
</g>
<!-- v:f/x&#45;&gt;f/MatMul -->
<g id="edge8" class="edge"><title>v:f/x&#45;&gt;f/MatMul</title>
<g id="a_edge8"><a xlink:title="%0 = f/x">
<path fill="none" stroke="black" d="M146.101,-61.803C161.358,-67.1709 178.056,-73.0461 193.584,-78.5095"/>
<polygon fill="black" stroke="black" points="192.483,-81.8323 203.077,-81.8498 194.806,-75.2291 192.483,-81.8323"/>
</a>
</g>
</g>
<!-- v:f/b -->
<g id="node13" class="node"><title>v:f/b</title>
<g id="a_node13"><a xlink:title="const var f/b">
<polygon fill="#eeeeee" stroke="#a6a6a6" points="294.821,-62 210.821,-62 210.821,-24 294.821,-24 294.821,-62"/>
<text text-anchor="middle" x="252.821" y="-46.8" font-family="arial" font-size="14.00">b</text>
<text text-anchor="middle" x="252.821" y="-31.8" font-family="arial" font-size="14.00">float32[64]</text>
</a>
</g>
</g>
<!-- v:f/b&#45;&gt;f/Add -->
<g id="edge12" class="edge"><title>v:f/b&#45;&gt;f/Add</title>
<g id="a_edge12"><a xlink:title="%1 = f/b">
<path fill="none" stroke="black" d="M295.174,-44.8655C305.566,-45.3344 316.919,-45.8465 327.985,-46.3457"/>
<polygon fill="black" stroke="black" points="327.884,-49.8446 338.031,-46.799 328.199,-42.8518 327.884,-49.8446"/>
</a>
</g>
</g>
</g>
</svg>
