<?xml version="1.0" encoding="UTF-8" standalone="no"?>
<!DOCTYPE svg PUBLIC "-//W3C//DTD SVG 1.1//EN"
 "http://www.w3.org/Graphics/SVG/1.1/DTD/svg11.dtd">
<!-- Generated by graphviz version 2.38.0 (20140413.2041)
 -->
<!-- Title: flow Pages: 1 -->
<svg width="1172pt" height="229pt"
 viewBox="0.00 0.00 1172.33 229.00" xmlns="http://www.w3.org/2000/svg" xmlns:xlink="http://www.w3.org/1999/xlink">
<g id="graph0" class="graph" transform="scale(1 1) rotate(0) translate(4 225)">
<title>flow</title>
<polygon fill="white" stroke="none" points="-4,4 -4,-225 1168.33,-225 1168.33,4 -4,4"/>
<g id="clust1" class="cluster"><title>cluster_0</title>
<g id="a_clust1"><a xlink:title="f">
<path fill="#fcfcfc" stroke="black" d="M20,-8C20,-8 1144.33,-8 1144.33,-8 1150.33,-8 1156.33,-14 1156.33,-20 1156.33,-20 1156.33,-201 1156.33,-201 1156.33,-207 1150.33,-213 1144.33,-213 1144.33,-213 20,-213 20,-213 14,-213 8,-207 8,-201 8,-201 8,-20 8,-20 8,-14 14,-8 20,-8"/>
<text text-anchor="middle" x="582.164" y="-197.8" font-family="arial" font-size="14.00">f</text>
</a>
</g>
</g>
<!-- f/MatMul -->
<g id="node1" class="node"><title>f/MatMul</title>
<g id="a_node1"><a xlink:title="name: f/MatMul&#10;type: MatMulAddRelu&#10;input:&#10; &#160;f/x: float32[1x64]&#10; &#160;f/W: float32[64x256]&#10; &#160;f/b: float32[256]&#10;output:&#10; &#160;f/Relu:0: float32[1x256]&#10;func: f&#10;">
<path fill="#efd8a9" stroke="#a79776" d="M296.007,-118C296.007,-118 204.007,-118 204.007,-118 198.007,-118 192.007,-112 192.007,-106 192.007,-106 192.007,-92 192.007,-92 192.007,-86 198.007,-80 204.007,-80 204.007,-80 296.007,-80 296.007,-80 302.007,-80 308.007,-86 308.007,-92 308.007,-92 308.007,-106 308.007,-106 308.007,-112 302.007,-118 296.007,-118"/>
<text text-anchor="middle" x="250.007" y="-102.8" font-family="arial" font-size="14.00">MatMulAddRelu</text>
<text text-anchor="middle" x="250.007" y="-87.8" font-family="arial" font-size="14.00">float32[1x256]</text>
</a>
</g>
</g>
<!-- f/Max -->
<g id="node2" class="node"><title>f/Max</title>
<g id="a_node2"><a xlink:title="name: f/Max&#10;type: Max&#10;input:&#10; &#160;f/Relu:0: float32[1x256]&#10;output:&#10; &#160;f/Max:0: float32&#10;func: f&#10;">
<path fill="#efd8a9" stroke="#a79776" d="M392.007,-90C392.007,-90 356.007,-90 356.007,-90 350.007,-90 344.007,-84 344.007,-78 344.007,-78 344.007,-64 344.007,-64 344.007,-58 350.007,-52 356.007,-52 356.007,-52 392.007,-52 392.007,-52 398.007,-52 404.007,-58 404.007,-64 404.007,-64 404.007,-78 404.007,-78 404.007,-84 398.007,-90 392.007,-90"/>
<text text-anchor="middle" x="374.007" y="-74.8" font-family="arial" font-size="14.00">Max</text>
<text text-anchor="middle" x="374.007" y="-59.8" font-family="arial" font-size="14.00">float32</text>
</a>
</g>
</g>
<!-- f/MatMul&#45;&gt;f/Max -->
<g id="edge5" class="edge"><title>f/MatMul&#45;&gt;f/Max</title>
<g id="a_edge5"><a xlink:title="f/Relu:0">
<path fill="none" stroke="black" d="M308.078,-85.9018C316.896,-83.878 325.823,-81.829 334.12,-79.9249"/>
<polygon fill="black" stroke="black" points="334.914,-83.3339 343.877,-77.6856 333.348,-76.5113 334.914,-83.3339"/>
</a>
</g>
</g>
<!-- f/Sub -->
<g id="node3" class="node"><title>f/Sub</title>
<g id="a_node3"><a xlink:title="name: f/Sub&#10;type: Calculate&#10;input:&#10; &#160;%0 &#160;&#160;f/Relu:0: float32[1x256]&#10; &#160;%1 &#160;&#160;f/Max:0: float32&#10;output:&#10; &#160;@0 &#160;&#160;f/Exp:0: float32[1x256]&#10; &#160;@1 &#160;&#160;f/Sum:0: float32&#10;func: f&#10;attr:&#10; &#160;expr = @0=Exp(Sub(%0,%1));@1=Sum(@0)&#10;">
<path fill="#efd8a9" stroke="#a79776" d="M685.007,-95C685.007,-95 452.007,-95 452.007,-95 446.007,-95 440.007,-89 440.007,-83 440.007,-83 440.007,-69 440.007,-69 440.007,-63 446.007,-57 452.007,-57 452.007,-57 685.007,-57 685.007,-57 691.007,-57 697.007,-63 697.007,-69 697.007,-69 697.007,-83 697.007,-83 697.007,-89 691.007,-95 685.007,-95"/>
<text text-anchor="middle" x="568.507" y="-79.8" font-family="arial" font-size="14.00">@0=Exp(Sub(%0,%1));@1=Sum(@0)</text>
<text text-anchor="middle" x="568.507" y="-64.8" font-family="arial" font-size="14.00">float32[1x256]</text>
</a>
</g>
</g>
<!-- f/MatMul&#45;&gt;f/Sub -->
<g id="edge4" class="edge"><title>f/MatMul&#45;&gt;f/Sub</title>
<g id="a_edge4"><a xlink:title="%0 = f/Relu:0">
<path fill="none" stroke="black" d="M308.109,-100.89C336.901,-101.363 372.342,-101.216 404.007,-99 414.3,-98.2796 424.931,-97.307 435.602,-96.1674"/>
<polygon fill="black" stroke="black" points="436.284,-99.6132 445.834,-95.0265 435.508,-92.6563 436.284,-99.6132"/>
</a>
</g>
</g>
<!-- f/Max&#45;&gt;f/Sub -->
<g id="edge6" class="edge"><title>f/Max&#45;&gt;f/Sub</title>
<g id="a_edge6"><a xlink:title="%1 = f/Max:0">
<path fill="none" stroke="black" d="M404.244,-71.7594C411.736,-71.954 420.304,-72.1765 429.503,-72.4155"/>
<polygon fill="black" stroke="black" points="429.624,-75.9197 439.711,-72.6806 429.806,-68.9221 429.624,-75.9197"/>
</a>
</g>
</g>
<!-- f/Reciprocal -->
<g id="node4" class="node"><title>f/Reciprocal</title>
<g id="a_node4"><a xlink:title="name: f/Reciprocal&#10;type: Reciprocal&#10;input:&#10; &#160;f/Sum:0: float32&#10;output:&#10; &#160;f/Reciprocal:0: float32&#10;func: f&#10;">
<path fill="#efd8a9" stroke="#a79776" d="M806.007,-77C806.007,-77 745.007,-77 745.007,-77 739.007,-77 733.007,-71 733.007,-65 733.007,-65 733.007,-51 733.007,-51 733.007,-45 739.007,-39 745.007,-39 745.007,-39 806.007,-39 806.007,-39 812.007,-39 818.007,-45 818.007,-51 818.007,-51 818.007,-65 818.007,-65 818.007,-71 812.007,-77 806.007,-77"/>
<text text-anchor="middle" x="775.507" y="-61.8" font-family="arial" font-size="14.00">Reciprocal</text>
<text text-anchor="middle" x="775.507" y="-46.8" font-family="arial" font-size="14.00">float32</text>
</a>
</g>
</g>
<!-- f/Sub&#45;&gt;f/Reciprocal -->
<g id="edge8" class="edge"><title>f/Sub&#45;&gt;f/Reciprocal</title>
<g id="a_edge8"><a xlink:title="f/Sum:0 (@1)">
<path fill="none" stroke="black" d="M697.298,-64.7794C706.103,-64.0062 714.643,-63.2564 722.634,-62.5547"/>
<polygon fill="black" stroke="black" points="723.145,-66.0234 732.8,-61.6621 722.533,-59.0502 723.145,-66.0234"/>
</a>
</g>
</g>
<!-- f/y -->
<g id="node5" class="node"><title>f/y</title>
<g id="a_node5"><a xlink:title="name: f/y&#10;type: Mul&#10;input:&#10; &#160;f/Exp:0: float32[1x256]&#10; &#160;f/Reciprocal:0: float32&#10;output:&#10; &#160;f/y:0: float32[1x256]&#10;func: f&#10;">
<path fill="#efd8a9" stroke="#a79776" d="M949.007,-79C949.007,-79 866.007,-79 866.007,-79 860.007,-79 854.007,-73 854.007,-67 854.007,-67 854.007,-53 854.007,-53 854.007,-47 860.007,-41 866.007,-41 866.007,-41 949.007,-41 949.007,-41 955.007,-41 961.007,-47 961.007,-53 961.007,-53 961.007,-67 961.007,-67 961.007,-73 955.007,-79 949.007,-79"/>
<text text-anchor="middle" x="907.507" y="-63.8" font-family="arial" font-size="14.00">Mul</text>
<text text-anchor="middle" x="907.507" y="-48.8" font-family="arial" font-size="14.00">float32[1x256]</text>
</a>
</g>
</g>
<!-- f/Sub&#45;&gt;f/y -->
<g id="edge7" class="edge"><title>f/Sub&#45;&gt;f/y</title>
<g id="a_edge7"><a xlink:title="%0 = f/Exp:0 (@0)">
<path fill="none" stroke="black" d="M697.023,-90.0489C736.006,-91.9519 778.902,-91.6253 818.007,-86 826.529,-84.774 835.376,-82.9162 844.034,-80.746"/>
<polygon fill="black" stroke="black" points="844.934,-84.1282 853.702,-78.18 843.139,-77.3624 844.934,-84.1282"/>
</a>
</g>
</g>
<!-- f/Reciprocal&#45;&gt;f/y -->
<g id="edge9" class="edge"><title>f/Reciprocal&#45;&gt;f/y</title>
<g id="a_edge9"><a xlink:title="%1 = f/Reciprocal:0">
<path fill="none" stroke="black" d="M818.356,-58.6438C826.465,-58.7686 835.127,-58.9018 843.736,-59.0343"/>
<polygon fill="black" stroke="black" points="843.731,-62.5345 853.783,-59.1889 843.838,-55.5354 843.731,-62.5345"/>
</a>
</g>
</g>
<!-- v:f/y:0 -->
<g id="node9" class="node"><title>v:f/y:0</title>
<g id="a_node9"><a xlink:title="out var f/y:0">
<ellipse fill="#bbc6dd" stroke="#828a9a" cx="1072.67" cy="-60" rx="75.8212" ry="26.7407"/>
<text text-anchor="middle" x="1072.67" y="-63.8" font-family="arial" font-size="14.00">y:0</text>
<text text-anchor="middle" x="1072.67" y="-48.8" font-family="arial" font-size="14.00">float32[1x256]</text>
</a>
</g>
</g>
<!-- f/y&#45;&gt;v:f/y:0 -->
<g id="edge10" class="edge"><title>f/y&#45;&gt;v:f/y:0</title>
<g id="a_edge10"><a xlink:title="f/y:0">
<path fill="none" stroke="black" d="M961.03,-60C969.266,-60 977.956,-60 986.698,-60"/>
<polygon fill="black" stroke="black" points="986.961,-63.5001 996.961,-60 986.961,-56.5001 986.961,-63.5001"/>
</a>
</g>
</g>
<!-- v:f/W -->
<g id="node6" class="node"><title>v:f/W</title>
<g id="a_node6"><a xlink:title="const var f/W">
<polygon fill="#eeeeee" stroke="#a6a6a6" points="144.004,-182 28.0036,-182 28.0036,-144 144.004,-144 144.004,-182"/>
<text text-anchor="middle" x="86.0036" y="-166.8" font-family="arial" font-size="14.00">W</text>
<text text-anchor="middle" x="86.0036" y="-151.8" font-family="arial" font-size="14.00">float32[64x256]</text>
</a>
</g>
</g>
<!-- v:f/W&#45;&gt;f/MatMul -->
<g id="edge1" class="edge"><title>v:f/W&#45;&gt;f/MatMul</title>
<g id="a_edge1"><a xlink:title="%1 = f/W">
<path fill="none" stroke="black" d="M135.171,-143.971C152.804,-137.005 172.935,-129.053 191.315,-121.791"/>
<polygon fill="black" stroke="black" points="192.731,-124.995 200.745,-118.066 190.159,-118.485 192.731,-124.995"/>
</a>
</g>
</g>
<!-- v:f/x -->
<g id="node7" class="node"><title>v:f/x</title>
<g id="a_node7"><a xlink:title="in var f/x">
<ellipse fill="#c5e2b6" stroke="#899e7f" cx="86.0036" cy="-99" rx="70.0071" ry="26.7407"/>
<text text-anchor="middle" x="86.0036" y="-102.8" font-family="arial" font-size="14.00">x</text>
<text text-anchor="middle" x="86.0036" y="-87.8" font-family="arial" font-size="14.00">float32[1x64]</text>
</a>
</g>
</g>
<!-- v:f/x&#45;&gt;f/MatMul -->
<g id="edge2" class="edge"><title>v:f/x&#45;&gt;f/MatMul</title>
<g id="a_edge2"><a xlink:title="%0 = f/x">
<path fill="none" stroke="black" d="M156.178,-99C164.615,-99 173.227,-99 181.638,-99"/>
<polygon fill="black" stroke="black" points="181.771,-102.5 191.771,-99 181.771,-95.5001 181.771,-102.5"/>
</a>
</g>
</g>
<!-- v:f/b -->
<g id="node8" class="node"><title>v:f/b</title>
<g id="a_node8"><a xlink:title="const var f/b">
<polygon fill="#eeeeee" stroke="#a6a6a6" points="132.004,-54 40.0036,-54 40.0036,-16 132.004,-16 132.004,-54"/>
<text text-anchor="middle" x="86.0036" y="-38.8" font-family="arial" font-size="14.00">b</text>
<text text-anchor="middle" x="86.0036" y="-23.8" font-family="arial" font-size="14.00">float32[256]</text>
</a>
</g>
</g>
<!-- v:f/b&#45;&gt;f/MatMul -->
<g id="edge3" class="edge"><title>v:f/b&#45;&gt;f/MatMul</title>
<g id="a_edge3"><a xlink:title="%2 = f/b">
<path fill="none" stroke="black" d="M132.131,-52.8276C150.475,-60.0746 171.896,-68.5369 191.352,-76.2231"/>
<polygon fill="black" stroke="black" points="190.136,-79.5061 200.723,-79.9252 192.708,-72.9957 190.136,-79.5061"/>
</a>
</g>
</g>
</g>
</svg>
